<?xml version="1.0" standalone="no"?>
<!DOCTYPE svg PUBLIC "-//W3C//DTD SVG 20010904//EN"
 "http://www.w3.org/TR/2001/REC-SVG-20010904/DTD/svg10.dtd">
<svg version="1.0" xmlns="http://www.w3.org/2000/svg"
 width="489.000000pt" height="491.000000pt" viewBox="0 0 489.000000 491.000000"
 preserveAspectRatio="xMidYMid meet">

<g transform="translate(0.000000,491.000000) scale(0.100000,-0.100000)"
fill="#000000" stroke="none">
<path d="M1849 4172 c-8 -10 -83 -120 -168 -247 -167 -249 -230 -338 -243
-343 -4 -2 -8 -8 -8 -14 0 -6 -16 -32 -36 -59 -24 -33 -34 -57 -31 -70 4 -16
3 -18 -9 -8 -8 6 -14 7 -14 2 0 -6 -11 -23 -25 -39 -27 -31 -31 -44 -15 -44 6
0 10 5 10 11 0 6 7 9 15 5 8 -3 15 0 15 6 0 6 3 9 6 5 3 -3 1 -14 -5 -24 -7
-12 -10 -13 -11 -4 0 10 -3 11 -14 2 -8 -6 -18 -10 -24 -9 -18 5 -114 -131
-107 -151 3 -11 0 -23 -6 -27 -9 -5 -10 -2 -6 9 12 31 -8 17 -33 -23 -14 -22
-28 -40 -32 -40 -5 0 -8 -5 -8 -10 0 -6 -36 -60 -80 -120 -44 -60 -80 -119
-80 -130 0 -12 -4 -19 -9 -16 -8 5 -47 -44 -129 -162 -13 -18 -20 -37 -17 -42
4 -6 1 -9 -6 -8 -7 2 -25 -16 -41 -39 l-29 -43 30 -32 c17 -18 31 -37 31 -41
0 -5 5 -5 12 -1 7 4 8 3 4 -4 -4 -6 26 -56 68 -111 41 -55 80 -110 86 -121 6
-12 17 -19 25 -17 7 3 12 -1 11 -8 -1 -15 30 -60 180 -263 56 -75 176 -238
268 -362 91 -124 170 -230 174 -236 5 -5 42 -55 83 -110 40 -54 76 -101 79
-104 3 -3 22 -27 41 -55 18 -27 36 -52 40 -55 3 -3 20 -26 38 -51 l32 -46 267
90 c147 50 269 91 270 93 5 3 -140 198 -150 202 -4 2 -8 8 -8 13 0 6 -8 19
-18 29 -18 19 -19 19 -118 -16 -54 -19 -106 -33 -115 -32 -9 2 -60 62 -113
133 -53 72 -104 140 -114 151 -9 12 -62 83 -117 158 -269 367 -472 631 -484
631 -8 0 -15 9 -16 21 -1 19 -81 135 -97 142 -11 5 -10 32 1 32 4 0 27 25 50
56 33 45 40 59 29 66 -10 7 -9 8 4 4 12 -4 22 3 32 22 8 15 26 40 40 56 27 30
34 56 16 56 -5 0 -10 8 -10 17 0 15 2 14 14 -3 8 -10 16 -17 18 -14 3 3 33 46
69 95 35 50 66 92 69 95 3 3 14 19 24 35 11 17 59 85 108 152 60 82 86 126 82
138 -5 11 0 18 14 21 29 8 134 158 126 181 -4 13 -3 15 4 4 7 -10 11 -10 17
-1 4 7 1 17 -6 22 -11 8 -11 9 2 5 11 -4 29 11 55 46 21 29 41 54 44 57 3 3
23 31 45 63 21 32 45 63 52 68 12 11 39 4 413 -115 58 -19 152 -48 210 -66 58
-18 137 -42 175 -55 245 -79 448 -136 454 -127 3 5 5 77 3 159 l-3 149 -112
36 c-62 20 -143 46 -182 58 -157 47 -301 92 -320 100 -11 5 -36 13 -55 19 -37
10 -245 74 -475 146 -244 76 -240 76 -256 57z m-295 -494 c-5 -7 -9 -16 -9
-20 0 -12 -15 -21 -15 -9 0 17 21 54 27 48 3 -3 1 -12 -3 -19z m30 -2 c-3 -9
-10 -16 -15 -16 -5 0 -4 9 3 20 14 22 21 20 12 -4z m79 -13 c-7 -2 -19 -2 -25
0 -7 3 -2 5 12 5 14 0 19 -2 13 -5z m-158 -42 c-3 -6 -11 -11 -17 -11 -6 0 -6
6 2 15 14 17 26 13 15 -4z m263 -96 c-3 -3 -9 2 -12 12 -6 14 -5 15 5 6 7 -7
10 -15 7 -18z m-341 -14 c0 -11 -5 -18 -9 -15 -4 3 -5 11 -1 19 7 21 12 19 10
-4z m277 -26 c-4 -8 -11 -15 -16 -15 -6 0 -5 6 2 15 7 8 14 15 16 15 2 0 1 -7
-2 -15z m36 5 c0 -5 -2 -10 -4 -10 -3 0 -8 5 -11 10 -3 6 -1 10 4 10 6 0 11
-4 11 -10z m-34 -48 c-18 -16 -18 -16 -6 6 6 13 14 21 18 18 3 -4 -2 -14 -12
-24z m-296 -7 c-7 -9 -15 -13 -19 -10 -3 3 1 10 9 15 21 14 24 12 10 -5z m273
-8 c3 -8 2 -20 -3 -26 -5 -9 -7 -4 -7 13 0 29 2 32 10 13z m-63 -122 c-7 -9
-15 -13 -18 -10 -3 2 1 11 8 20 7 9 15 13 18 10 3 -2 -1 -11 -8 -20z m-354
-59 c-1 -37 -5 -52 -13 -49 -8 3 -10 16 -6 34 3 18 1 29 -6 29 -6 0 -3 9 6 20
10 11 18 20 18 20 1 0 1 -24 1 -54z m265 -57 c-25 -41 -27 -33 -4 16 10 20 19
32 21 27 2 -6 -6 -25 -17 -43z m-298 -6 c-7 -2 -19 -2 -25 0 -7 3 -2 5 12 5
14 0 19 -2 13 -5z m221 -38 c-4 -8 -8 -15 -10 -15 -2 0 -4 7 -4 15 0 8 4 15
10 15 5 0 7 -7 4 -15z m44 -3 c-10 -2 -18 -10 -18 -18 0 -8 -5 -14 -11 -14
-10 0 -5 13 14 37 5 7 14 10 21 6 7 -5 5 -9 -6 -11z m-313 -15 c0 -19 -5 -23
-23 -21 -29 3 -37 10 -23 19 6 3 11 0 11 -7 0 -7 7 -2 16 10 19 27 19 27 19
-1z m264 -39 c0 -13 -3 -17 -6 -10 -2 6 -9 10 -14 7 -5 -4 -6 1 -3 9 9 24 24
19 23 -6z m-347 -40 c-7 -7 -12 -8 -12 -2 0 14 12 26 19 19 2 -3 -1 -11 -7
-17z m-21 -45 c-5 -18 -15 -29 -29 -31 -20 -3 -27 -13 -23 -35 1 -5 -3 -6 -8
-2 -16 9 -1 36 25 46 14 5 24 17 24 29 0 11 4 20 9 20 5 0 6 -12 2 -27z m26
-5 c-3 -7 -5 -2 -5 12 0 14 2 19 5 13 2 -7 2 -19 0 -25z m291 2 c-14 -22 -24
-19 -15 5 4 8 11 15 17 15 6 0 6 -7 -2 -20z m-71 -66 c-3 -3 -12 -4 -19 -1 -8
3 -5 6 6 6 11 1 17 -2 13 -5z m-327 -29 c-7 -9 -15 -13 -18 -10 -3 2 1 11 8
20 7 9 15 13 18 10 3 -2 -1 -11 -8 -20z m310 -26 c-12 -16 -25 -28 -27 -25 -8
8 25 56 38 56 6 0 1 -14 -11 -31z m-290 2 c0 -5 -7 -12 -16 -15 -14 -5 -15 -4
-4 9 14 17 20 19 20 6z m20 -55 c0 -11 -19 -15 -25 -6 -3 5 1 10 9 10 9 0 16
-2 16 -4z m118 -57 c-2 -6 -8 -10 -13 -10 -5 0 -11 4 -13 10 -2 6 4 11 13 11
9 0 15 -5 13 -11z m62 -19 c0 -5 -4 -10 -10 -10 -5 0 -10 -7 -10 -15 0 -8 -7
-15 -15 -15 -20 0 -19 9 3 31 19 20 32 24 32 9z m-359 -34 c-9 -11 -9 -15 1
-19 7 -3 3 -6 -9 -6 -28 -1 -28 3 -5 27 20 21 31 20 13 -2z m89 14 c0 -5 -4
-10 -10 -10 -5 0 -10 5 -10 10 0 6 5 10 10 10 6 0 10 -4 10 -10z m202 -72 c-7
-7 -12 -8 -12 -2 0 14 12 26 19 19 2 -3 -1 -11 -7 -17z m-318 -3 c-4 -8 -10
-15 -15 -15 -4 0 -6 7 -3 15 4 8 10 15 15 15 4 0 6 -7 3 -15z m296 11 c0 -3
-4 -8 -10 -11 -5 -3 -10 -1 -10 4 0 6 5 11 10 11 6 0 10 -2 10 -4z m-270 -36
c0 -5 -5 -10 -11 -10 -5 0 -7 5 -4 10 3 6 8 10 11 10 2 0 4 -4 4 -10z m257
-22 c-17 -11 -37 -10 -37 2 0 6 7 10 15 10 8 0 15 6 15 13 0 8 3 7 10 -3 6 -9
5 -17 -3 -22z m-331 -45 c-1 -13 -6 -26 -10 -30 -4 -5 -7 -3 -6 2 1 6 1 12 0
15 -6 17 -8 45 -3 53 8 14 21 -14 19 -40z m-33 -9 c4 -27 17 -45 28 -39 5 4 9
-1 9 -9 0 -9 -6 -16 -13 -16 -16 0 -37 41 -37 72 0 25 8 20 13 -8z m108 -121
c6 -15 8 -36 5 -46 -4 -15 1 -18 22 -15 39 4 62 -18 52 -52 -4 -15 -4 -34 1
-41 5 -8 9 -18 9 -24 -1 -5 -6 -1 -12 10 -6 11 -16 23 -22 27 -7 5 -7 8 2 8 9
0 12 10 10 28 -2 22 -9 28 -38 32 -27 4 -34 9 -32 24 2 12 -1 16 -9 10 -9 -5
-10 -2 -6 10 4 10 2 26 -3 37 -8 13 -7 19 0 19 6 0 15 -12 21 -27z m274 -13
c3 -5 1 -10 -4 -10 -6 0 -11 5 -11 10 0 6 2 10 4 10 3 0 8 -4 11 -10z m45 -25
c-7 -8 -20 -14 -29 -14 -13 1 -13 2 2 6 9 2 17 9 17 14 0 5 5 9 11 9 8 0 8 -5
-1 -15z m-270 -70 c0 -8 -2 -15 -4 -15 -2 0 -6 7 -10 15 -3 8 -1 15 4 15 6 0
10 -7 10 -15z m250 -35 c0 -5 -4 -10 -10 -10 -5 0 -10 5 -10 10 0 6 5 10 10
10 6 0 10 -4 10 -10z m-50 -31 c0 -11 -4 -17 -10 -14 -5 3 -10 13 -10 21 0 8
5 14 10 14 6 0 10 -9 10 -21z m-103 -57 c-17 -16 -17 -16 -13 8 2 14 5 27 5
30 1 2 6 -1 13 -8 9 -9 8 -16 -5 -30z m31 -77 c-3 -3 -9 2 -12 12 -6 14 -5 15
5 6 7 -7 10 -15 7 -18z"/>
<path d="M2819 3183 c-2 -4 -2 -213 1 -463 3 -250 3 -461 1 -467 -2 -7 -8 -13
-15 -13 -6 1 -68 -18 -139 -42 -101 -34 -123 -45 -105 -50 16 -5 12 -6 -11 -3
-43 6 -261 -66 -234 -77 15 -5 15 -7 2 -7 -12 -1 -14 -9 -11 -31 5 -37 -1 -38
-23 -4 -14 22 -15 28 -4 35 9 6 3 7 -17 3 -29 -6 -33 -1 -150 156 -65 89 -139
189 -164 223 -25 34 -53 71 -63 82 l-19 20 -14 -20 c-8 -11 -40 -54 -70 -95
-30 -41 -64 -90 -75 -107 l-20 -32 32 -48 c18 -27 36 -50 39 -53 3 -3 21 -27
40 -55 19 -27 36 -52 39 -55 7 -6 112 -147 215 -287 38 -51 69 -93 70 -93 5 0
380 127 546 185 52 19 122 41 155 51 49 14 56 18 40 25 -14 6 -9 7 14 3 25 -5
32 -3 26 6 -5 9 -4 11 4 6 10 -7 82 12 186 50 l40 15 -6 517 c-4 284 -7 525
-8 535 0 9 -8 17 -17 17 -8 0 -63 16 -122 35 -134 43 -159 49 -163 38z m283
-875 c-7 -7 -12 -8 -12 -2 0 14 12 26 19 19 2 -3 -1 -11 -7 -17z m-305 -93 c0
-8 -6 -15 -13 -15 -8 0 -11 6 -8 15 4 8 9 15 13 15 4 0 8 -7 8 -15z m-87 -25
c0 -5 -8 -10 -17 -10 -15 0 -16 2 -3 10 19 12 20 12 20 0z m-75 -25 c-50 -18
-57 -18 -25 0 14 8 34 14 45 14 11 0 2 -6 -20 -14z m-165 -55 c0 -5 -7 -10
-16 -10 -8 0 -12 5 -9 10 3 6 10 10 16 10 5 0 9 -4 9 -10z m-50 -14 c0 -2 -9
-6 -20 -9 -11 -3 -18 -1 -14 4 5 9 34 13 34 5z m35 -16 c-11 -5 -27 -9 -35 -9
-9 0 -8 4 5 9 11 5 27 9 35 9 9 0 8 -4 -5 -9z m-80 -10 c3 -6 -1 -7 -9 -4 -18
7 -21 14 -7 14 6 0 13 -4 16 -10z m515 -25 c0 -8 -4 -15 -10 -15 -5 0 -10 7
-10 15 0 8 5 15 10 15 6 0 10 -7 10 -15z m200 -1 c0 -7 -73 -34 -78 -29 -3 3
0 5 8 5 10 0 10 3 0 15 -9 10 -9 15 -1 15 6 0 11 -4 11 -10 0 -5 7 -7 15 -4 8
4 13 10 10 14 -3 5 4 6 15 3 11 -3 20 -7 20 -9z m-100 -34 c-8 -5 -22 -9 -30
-9 -10 0 -8 3 5 9 27 12 43 12 25 0z m-150 -44 c0 -3 -4 -8 -10 -11 -5 -3 -10
-1 -10 4 0 6 5 11 10 11 6 0 10 -2 10 -4z m-478 -28 c-7 -7 -12 -8 -12 -2 0 6
3 14 7 17 3 4 9 5 12 2 2 -3 -1 -11 -7 -17z m381 15 c-7 -2 -19 -2 -25 0 -7 3
-2 5 12 5 14 0 19 -2 13 -5z m17 -23 c-34 -11 -60 -11 -35 0 11 5 29 8 40 8
16 0 15 -2 -5 -8z m-275 -59 c-6 -5 -25 10 -25 20 0 5 6 4 14 -3 8 -7 12 -15
11 -17z m52 23 c-3 -3 -12 -4 -19 -1 -8 3 -5 6 6 6 11 1 17 -2 13 -5z m68 -12
c-13 -11 -65 -33 -65 -27 0 2 12 11 28 19 30 17 52 21 37 8z m-178 -17 c0 -18
-19 -15 -25 3 -2 7 3 12 11 12 7 0 14 -7 14 -15z m90 -11 c-3 -3 -12 -4 -19
-1 -8 3 -5 6 6 6 11 1 17 -2 13 -5z"/>
</g>
</svg>
